<svg xmlns="http://www.w3.org/2000/svg" xmlns:xlink="http://www.w3.org/1999/xlink" width="778.302" height="1493.516" viewBox="0 0 778.302 1493.516">
  <defs>
    <linearGradient id="linear-gradient" x1="0.5" x2="0.5" y2="1" gradientUnits="objectBoundingBox">
      <stop offset="0" stop-color="#60838f"/>
      <stop offset="1" stop-color="#3a5057"/>
    </linearGradient>
    <linearGradient id="linear-gradient-13" x1="0.668" y1="0.307" x2="0.141" y2="1.295" gradientUnits="objectBoundingBox">
      <stop offset="0" stop-color="#bc8c59"/>
      <stop offset="1" stop-color="#5e462d"/>
    </linearGradient>
    <linearGradient id="linear-gradient-14" x1="0.03" y1="0.492" x2="0.689" y2="0.483" gradientUnits="objectBoundingBox">
      <stop offset="0" stop-color="#895c52"/>
      <stop offset="1" stop-color="#75433c"/>
    </linearGradient>
    <linearGradient id="linear-gradient-15" x1="0.719" y1="0.239" x2="-0.28" y2="0.977" gradientUnits="objectBoundingBox">
      <stop offset="0" stop-color="#dedede"/>
      <stop offset="1" stop-color="#6f6f6f"/>
      <stop offset="1"/>
    </linearGradient>
    <linearGradient id="linear-gradient-16" x1="0.817" y1="0.371" x2="0.054" y2="0.408" xlink:href="#linear-gradient-14"/>
    <linearGradient id="linear-gradient-19" y1="1" y2="0" xlink:href="#linear-gradient"/>
    <linearGradient id="linear-gradient-31" x1="0.332" y1="0.307" x2="0.859" y2="1.295" xlink:href="#linear-gradient-13"/>
    <linearGradient id="linear-gradient-32" x1="0.03" y1="0.508" x2="0.689" y2="0.517" xlink:href="#linear-gradient-14"/>
    <linearGradient id="linear-gradient-33" x1="0.281" y1="0.239" x2="1.28" y2="0.977" xlink:href="#linear-gradient-15"/>
    <linearGradient id="linear-gradient-34" x1="0.817" y1="0.629" x2="0.054" y2="0.592" xlink:href="#linear-gradient-14"/>
    <linearGradient id="linear-gradient-73" x1="0.667" y1="0.5" x2="0.175" y2="0.858" xlink:href="#linear-gradient-13"/>
    <linearGradient id="linear-gradient-75" x1="0.5" x2="0.5" y2="1" gradientUnits="objectBoundingBox">
      <stop offset="0" stop-color="#895c52"/>
      <stop offset="1" stop-color="#5e462d"/>
    </linearGradient>
    <linearGradient id="linear-gradient-76" x1="0.898" y1="0.41" x2="-0.256" y2="0.472" gradientUnits="objectBoundingBox">
      <stop offset="0" stop-color="#dedede"/>
      <stop offset="1" stop-color="#6f6f6f"/>
    </linearGradient>
    <linearGradient id="linear-gradient-77" y1="1" y2="0" xlink:href="#linear-gradient-75"/>
    <linearGradient id="linear-gradient-78" x1="0.102" y1="0.41" x2="1.256" y2="0.472" xlink:href="#linear-gradient-76"/>
    <linearGradient id="linear-gradient-79" x1="0.5" x2="0.5" y2="1" gradientUnits="objectBoundingBox">
      <stop offset="0" stop-color="#618591"/>
      <stop offset="1" stop-color="#314349"/>
    </linearGradient>
    <linearGradient id="linear-gradient-81" x1="0.569" y1="0.363" x2="0" y2="0.661" xlink:href="#linear-gradient-76"/>
    <linearGradient id="linear-gradient-82" x1="0.632" y1="0.408" x2="0" y2="1" gradientUnits="objectBoundingBox">
      <stop offset="0" stop-color="#75433c"/>
      <stop offset="1" stop-color="#3b221e"/>
    </linearGradient>
    <linearGradient id="linear-gradient-84" x1="0.532" y1="0.373" x2="0.019" y2="0.57" xlink:href="#linear-gradient-13"/>
    <linearGradient id="linear-gradient-85" x1="0.732" y1="0.5" x2="0" y2="0.5" gradientUnits="objectBoundingBox">
      <stop offset="0" stop-color="#bc8c59"/>
      <stop offset="1" stop-color="#8b6b4b"/>
    </linearGradient>
    <clipPath id="clip-path">
      <rect width="85" height="13" fill="none"/>
    </clipPath>
    <linearGradient id="linear-gradient-86" x1="0.5" y1="0" x2="0.474" y2="1.336" xlink:href="#linear-gradient-76"/>
    <radialGradient id="radial-gradient" cx="0.718" cy="0.634" r="1.639" gradientTransform="matrix(0.326, 0.767, -0.39, 0.641, 0.731, -0.323)" xlink:href="#linear-gradient-13"/>
    <linearGradient id="linear-gradient-87" x1="0.257" y1="0.206" x2="1" y2="0.654" xlink:href="#linear-gradient-13"/>
    <linearGradient id="linear-gradient-88" x1="0.743" y1="0.206" x2="0" y2="0.654" xlink:href="#linear-gradient-13"/>
    <clipPath id="clip-path-2">
      <rect width="108.332" height="67.034" fill="none"/>
    </clipPath>
    <linearGradient id="linear-gradient-89" x1="0.5" x2="0.5" y2="1.634" gradientUnits="objectBoundingBox">
      <stop offset="0" stop-color="#618591"/>
      <stop offset="1" stop-color="#526269"/>
    </linearGradient>
    <linearGradient id="linear-gradient-92" x1="0.513" y1="0.194" x2="0.513" y2="0.62" xlink:href="#linear-gradient-14"/>
    <linearGradient id="linear-gradient-93" x1="0.341" y1="0.102" x2="0.216" y2="1.146" xlink:href="#linear-gradient-76"/>
  </defs>
  <g id="robot" transform="translate(-77.426 -60)">
    <g id="left-arm">
      <g id="left-upper-arm">
        <path id="Path_19" data-name="Path 19" d="M199.4,991.784s-11.564.195-11.564,9.234,11.564,9.325,11.564,9.325h20.886s11.468.092,11.468-9.325-11.468-9.234-11.468-9.234Z" transform="translate(181.363 -492.28) rotate(13)" fill="url(#linear-gradient)"/>
        <path id="Path_19-2" data-name="Path 19" d="M199.4,991.784s-11.564.195-11.564,9.234,11.564,9.325,11.564,9.325h20.886s11.468.092,11.468-9.325-11.468-9.234-11.468-9.234Z" transform="translate(177.764 -476.69) rotate(13)" fill="url(#linear-gradient)"/>
        <path id="Path_19-3" data-name="Path 19" d="M199.4,991.784s-11.564.195-11.564,9.234,11.564,9.325,11.564,9.325h20.886s11.468.092,11.468-9.325-11.468-9.234-11.468-9.234Z" transform="translate(174.164 -461.1) rotate(13)" fill="url(#linear-gradient)"/>
        <path id="Path_19-4" data-name="Path 19" d="M199.4,991.784s-11.564.195-11.564,9.234,11.564,9.325,11.564,9.325h20.886s11.468.092,11.468-9.325-11.468-9.234-11.468-9.234Z" transform="translate(170.565 -445.51) rotate(13)" fill="url(#linear-gradient)"/>
        <path id="Path_19-5" data-name="Path 19" d="M199.4,991.784s-11.564.195-11.564,9.234,11.564,9.325,11.564,9.325h20.886s11.468.092,11.468-9.325-11.468-9.234-11.468-9.234Z" transform="translate(166.966 -429.92) rotate(13)" fill="url(#linear-gradient)"/>
        <path id="Path_19-6" data-name="Path 19" d="M199.4,991.784s-11.564.195-11.564,9.234,11.564,9.325,11.564,9.325h20.886s11.468.092,11.468-9.325-11.468-9.234-11.468-9.234Z" transform="translate(163.367 -414.33) rotate(13)" fill="url(#linear-gradient)"/>
        <path id="Path_19-7" data-name="Path 19" d="M199.4,991.784s-11.564.195-11.564,9.234,11.564,9.325,11.564,9.325h20.886s11.468.092,11.468-9.325-11.468-9.234-11.468-9.234Z" transform="translate(159.768 -398.74) rotate(13)" fill="url(#linear-gradient)"/>
        <path id="Path_19-8" data-name="Path 19" d="M199.4,991.784s-11.564.195-11.564,9.234,11.564,9.325,11.564,9.325h20.886s11.468.092,11.468-9.325-11.468-9.234-11.468-9.234Z" transform="translate(156.168 -383.15) rotate(13)" fill="url(#linear-gradient)"/>
        <path id="Path_19-9" data-name="Path 19" d="M199.4,991.784s-11.564.195-11.564,9.234,11.564,9.325,11.564,9.325h20.886s11.468.092,11.468-9.325-11.468-9.234-11.468-9.234Z" transform="translate(152.569 -367.561) rotate(13)" fill="url(#linear-gradient)"/>
        <path id="Path_19-10" data-name="Path 19" d="M199.4,991.784s-11.564.195-11.564,9.234,11.564,9.325,11.564,9.325h20.886s11.468.092,11.468-9.325-11.468-9.234-11.468-9.234Z" transform="translate(148.97 -351.971) rotate(13)" fill="url(#linear-gradient)"/>
        <path id="Path_19-11" data-name="Path 19" d="M199.4,991.784s-11.564.195-11.564,9.234,11.564,9.325,11.564,9.325h20.886s11.468.092,11.468-9.325-11.468-9.234-11.468-9.234Z" transform="translate(145.371 -336.381) rotate(13)" fill="url(#linear-gradient)"/>
        <path id="Path_19-12" data-name="Path 19" d="M199.4,991.784s-11.564.195-11.564,9.234,11.564,9.325,11.564,9.325h20.886s11.468.092,11.468-9.325-11.468-9.234-11.468-9.234Z" transform="translate(141.772 -320.791) rotate(13)" fill="url(#linear-gradient)"/>
      </g>
      <g id="left-forearm" transform="translate(3 -10)">
        <path id="Path_36" data-name="Path 36" d="M87,733.671h51.449S137.092,700.454,112.1,701.1,87,733.671,87,733.671Z" transform="translate(1 12)" fill="url(#linear-gradient-13)"/>
        <path id="Path_40" data-name="Path 40" d="M2.352,58.461a19.124,19.124,0,0,0,10.411,1.088c5.341-1.133,12.052-5.4,12.052-5.4S20.73,38.215,20.061,23.819c-.534-11.5,2.616-21.662-.025-23.2C14.269-2.738,1.936,8.333-.818,26.6A63.1,63.1,0,0,0,2.352,58.461Z" transform="matrix(-0.719, 0.695, -0.695, -0.719, 217.629, 920.936)" fill="url(#linear-gradient-14)"/>
        <path id="Path_32" data-name="Path 32" d="M77.228,742.117s13.032-8.447,32.46-8.447,47.061,8.447,47.061,8.447,16.29,35.175,21.721,73.488,3.741,135.271-33.667,140.1-61.27-68.812-67.575-111.016S77.228,742.117,77.228,742.117Z" fill="url(#linear-gradient-15)"/>
        <path id="Path_33" data-name="Path 33" d="M106.189,733.671s3.978,59.453,8.5,94.749,9.6,46.434,9.6,46.434a149.851,149.851,0,0,0-20.973,1.991,92.867,92.867,0,0,0-17.177,4.807" fill="none" stroke="#6f6f6f" stroke-width="2"/>
        <path id="Path_34" data-name="Path 34" d="M118.624,852.112s20.146-4.34,34.626-4.34a149.716,149.716,0,0,1,27.336,2.7" fill="none" stroke="#6f6f6f" stroke-width="2"/>
        <circle id="Ellipse_34" data-name="Ellipse 34" cx="5.5" cy="5.5" r="5.5" transform="translate(92 749)" fill="#676767"/>
        <circle id="Ellipse_35" data-name="Ellipse 35" cx="5.5" cy="5.5" r="5.5" transform="translate(108 860)" fill="#676767"/>
        <circle id="Ellipse_36" data-name="Ellipse 36" cx="5.5" cy="5.5" r="5.5" transform="translate(99 824)" fill="#676767"/>
        <circle id="Ellipse_37" data-name="Ellipse 37" cx="5.5" cy="5.5" r="5.5" transform="translate(94 787)" fill="#676767"/>
        <circle id="Ellipse_38" data-name="Ellipse 38" cx="5.5" cy="5.5" r="5.5" transform="translate(87 866)" fill="#676767"/>
        <path id="Path_37" data-name="Path 37" d="M120.434,928.263s7.07-1.115,12.326,0a19.44,19.44,0,0,1,8.7,4.461s.972,49.389-4.7,52.693-15.654-6.9-18.365-24.882A76.328,76.328,0,0,1,120.434,928.263Z" transform="translate(163.105 -8.376) rotate(11)" fill="url(#linear-gradient-16)"/>
        <path id="Path_38" data-name="Path 38" d="M120.977,933.945s4.015-4.657,9.829-4.648A18.88,18.88,0,0,1,141,932.545s3.27,8.977,1.933,27.649c-.455,10.824-6.794,28.014-8.9,29.241-6.02,3.5-12.726-8.456-15.6-27.527S120.977,933.945,120.977,933.945Z" transform="matrix(0.998, 0.07, -0.07, 0.998, 72.003, -2.54)" fill="url(#linear-gradient-16)"/>
        <path id="Path_39" data-name="Path 39" d="M2.495,60.6a19.825,19.825,0,0,0,10.793,1.128c5.537-1.175,12.494-5.593,12.494-5.593s-4.235-16.523-4.929-31.447C20.3,12.768,23.565,2.235,20.827.641c-5.978-3.48-18.763,8-21.618,26.935S2.495,60.6,2.495,60.6Z" transform="translate(193.41 983.176) rotate(159)" fill="url(#linear-gradient-14)"/>
      </g>
    </g>
    <g id="right-arm" transform="translate(711.426 516.338)">
      <g id="left-upper-arm-2" data-name="left-upper-arm" transform="translate(37.658)">
        <path id="Path_19-13" data-name="Path 19" d="M11.564,18.559S0,18.364,0,9.325,11.564,0,11.564,0H32.45S43.918-.092,43.918,9.325,32.45,18.559,32.45,18.559Z" transform="translate(46.967 18.083) rotate(167)" fill="url(#linear-gradient-19)"/>
        <path id="Path_19-14" data-name="Path 19" d="M11.564,18.559S0,18.364,0,9.325,11.564,0,11.564,0H32.45S43.918-.092,43.918,9.325,32.45,18.559,32.45,18.559Z" transform="translate(50.566 33.673) rotate(167)" fill="url(#linear-gradient-19)"/>
        <path id="Path_19-15" data-name="Path 19" d="M11.564,18.559S0,18.364,0,9.325,11.564,0,11.564,0H32.45S43.918-.092,43.918,9.325,32.45,18.559,32.45,18.559Z" transform="translate(54.166 49.263) rotate(167)" fill="url(#linear-gradient-19)"/>
        <path id="Path_19-16" data-name="Path 19" d="M11.564,18.559S0,18.364,0,9.325,11.564,0,11.564,0H32.45S43.918-.092,43.918,9.325,32.45,18.559,32.45,18.559Z" transform="translate(57.765 64.853) rotate(167)" fill="url(#linear-gradient-19)"/>
        <path id="Path_19-17" data-name="Path 19" d="M11.564,18.559S0,18.364,0,9.325,11.564,0,11.564,0H32.45S43.918-.092,43.918,9.325,32.45,18.559,32.45,18.559Z" transform="translate(61.364 80.443) rotate(167)" fill="url(#linear-gradient-19)"/>
        <path id="Path_19-18" data-name="Path 19" d="M11.564,18.559S0,18.364,0,9.325,11.564,0,11.564,0H32.45S43.918-.092,43.918,9.325,32.45,18.559,32.45,18.559Z" transform="translate(64.963 96.033) rotate(167)" fill="url(#linear-gradient-19)"/>
        <path id="Path_19-19" data-name="Path 19" d="M11.564,18.559S0,18.364,0,9.325,11.564,0,11.564,0H32.45S43.918-.092,43.918,9.325,32.45,18.559,32.45,18.559Z" transform="translate(68.562 111.623) rotate(167)" fill="url(#linear-gradient-19)"/>
        <path id="Path_19-20" data-name="Path 19" d="M11.564,18.559S0,18.364,0,9.325,11.564,0,11.564,0H32.45S43.918-.092,43.918,9.325,32.45,18.559,32.45,18.559Z" transform="translate(72.162 127.213) rotate(167)" fill="url(#linear-gradient-19)"/>
        <path id="Path_19-21" data-name="Path 19" d="M11.564,18.559S0,18.364,0,9.325,11.564,0,11.564,0H32.45S43.918-.092,43.918,9.325,32.45,18.559,32.45,18.559Z" transform="translate(75.761 142.803) rotate(167)" fill="url(#linear-gradient-19)"/>
        <path id="Path_19-22" data-name="Path 19" d="M11.564,18.559S0,18.364,0,9.325,11.564,0,11.564,0H32.45S43.918-.092,43.918,9.325,32.45,18.559,32.45,18.559Z" transform="translate(79.36 158.393) rotate(167)" fill="url(#linear-gradient-19)"/>
        <path id="Path_19-23" data-name="Path 19" d="M11.564,18.559S0,18.364,0,9.325,11.564,0,11.564,0H32.45S43.918-.092,43.918,9.325,32.45,18.559,32.45,18.559Z" transform="translate(82.959 173.982) rotate(167)" fill="url(#linear-gradient-19)"/>
        <path id="Path_19-24" data-name="Path 19" d="M11.564,18.559S0,18.364,0,9.325,11.564,0,11.564,0H32.45S43.918-.092,43.918,9.325,32.45,18.559,32.45,18.559Z" transform="translate(86.559 189.572) rotate(167)" fill="url(#linear-gradient-19)"/>
      </g>
      <g id="left-forearm-2" data-name="left-forearm" transform="translate(0 186.75)">
        <path id="Path_36-2" data-name="Path 36" d="M138.449,733.671H87s1.357-33.217,26.347-32.574S138.449,733.671,138.449,733.671Z" transform="translate(-7.721 -701.087)" fill="url(#linear-gradient-31)"/>
        <path id="Path_40-2" data-name="Path 40" d="M3.9,1.41A19.124,19.124,0,0,1,14.312.322c5.341,1.133,12.052,5.4,12.052,5.4s-4.085,15.938-4.754,30.335c-.534,11.5,2.616,21.662-.025,23.2C15.817,62.608,3.485,51.537.73,33.269A63.1,63.1,0,0,1,3.9,1.41Z" transform="matrix(0.719, 0.695, -0.695, 0.719, 41.575, 163.705)" fill="url(#linear-gradient-32)"/>
        <path id="Path_32-2" data-name="Path 32" d="M177.959,742.117s-13.032-8.447-32.46-8.447-47.061,8.447-47.061,8.447-16.29,35.175-21.721,73.488-3.741,135.271,33.667,140.1,61.27-68.812,67.575-111.016S177.959,742.117,177.959,742.117Z" transform="translate(-36.46 -713.087)" fill="url(#linear-gradient-33)"/>
        <path id="Path_33-2" data-name="Path 33" d="M104.24,733.671s-3.978,59.453-8.5,94.749-9.6,46.434-9.6,46.434a149.851,149.851,0,0,1,20.973,1.991,92.867,92.867,0,0,1,17.177,4.807" transform="translate(8.299 -713.087)" fill="none" stroke="#6f6f6f" stroke-width="2"/>
        <path id="Path_34-2" data-name="Path 34" d="M180.586,852.112s-20.146-4.34-34.626-4.34a149.716,149.716,0,0,0-27.336,2.7" transform="translate(-80.482 -713.087)" fill="none" stroke="#6f6f6f" stroke-width="2"/>
        <circle id="Ellipse_34-2" data-name="Ellipse 34" cx="5.5" cy="5.5" r="5.5" transform="translate(115.728 35.913)" fill="#676767"/>
        <circle id="Ellipse_35-2" data-name="Ellipse 35" cx="5.5" cy="5.5" r="5.5" transform="translate(99.728 146.913)" fill="#676767"/>
        <circle id="Ellipse_36-2" data-name="Ellipse 36" cx="5.5" cy="5.5" r="5.5" transform="translate(108.728 110.913)" fill="#676767"/>
        <circle id="Ellipse_37-2" data-name="Ellipse 37" cx="5.5" cy="5.5" r="5.5" transform="translate(113.728 73.913)" fill="#676767"/>
        <circle id="Ellipse_38-2" data-name="Ellipse 38" cx="5.5" cy="5.5" r="5.5" transform="translate(120.728 152.913)" fill="#676767"/>
        <path id="Path_37-2" data-name="Path 37" d="M2.878,57.771s7.07,1.115,12.326,0a19.44,19.44,0,0,0,8.7-4.461S24.877,3.922,19.2.617,3.547,7.518.836,25.5A76.328,76.328,0,0,0,2.878,57.771Z" transform="translate(128.371 268.885) rotate(169)" fill="url(#linear-gradient-34)"/>
        <path id="Path_38-2" data-name="Path 38" d="M3.389,56.1s4.015,4.657,9.829,4.648A18.88,18.88,0,0,0,23.41,57.5s3.27-8.977,1.933-27.649c-.455-10.824-6.794-28.014-8.9-29.241C10.422-2.9,3.716,9.065.841,28.136S3.389,56.1,3.389,56.1Z" transform="matrix(-0.998, 0.07, -0.07, -0.998, 98.484, 280.206)" fill="url(#linear-gradient-34)"/>
        <path id="Path_39-2" data-name="Path 39" d="M4.043,1.462A19.825,19.825,0,0,1,14.837.334C20.373,1.509,27.33,5.927,27.33,5.927S23.1,22.449,22.4,37.374c-.554,11.923,2.712,22.456-.026,24.05C16.4,64.9,3.612,53.427.757,34.488S4.043,1.462,4.043,1.462Z" transform="translate(46.114 211.591) rotate(21)" fill="url(#linear-gradient-32)"/>
      </g>
    </g>
    <g id="legs">
      <g id="left-upper-leg" transform="translate(263 384)">
        <path id="Path_19-25" data-name="Path 19" d="M199.4,991.784s-11.564.195-11.564,9.234,11.564,9.325,11.564,9.325h20.886s11.468.092,11.468-9.325-11.468-9.234-11.468-9.234Z" transform="translate(181.363 -492.28) rotate(13)" fill="url(#linear-gradient)"/>
        <path id="Path_19-26" data-name="Path 19" d="M199.4,991.784s-11.564.195-11.564,9.234,11.564,9.325,11.564,9.325h20.886s11.468.092,11.468-9.325-11.468-9.234-11.468-9.234Z" transform="translate(177.764 -476.69) rotate(13)" fill="url(#linear-gradient)"/>
        <path id="Path_19-27" data-name="Path 19" d="M199.4,991.784s-11.564.195-11.564,9.234,11.564,9.325,11.564,9.325h20.886s11.468.092,11.468-9.325-11.468-9.234-11.468-9.234Z" transform="translate(174.164 -461.1) rotate(13)" fill="url(#linear-gradient)"/>
        <path id="Path_19-28" data-name="Path 19" d="M199.4,991.784s-11.564.195-11.564,9.234,11.564,9.325,11.564,9.325h20.886s11.468.092,11.468-9.325-11.468-9.234-11.468-9.234Z" transform="translate(170.565 -445.51) rotate(13)" fill="url(#linear-gradient)"/>
        <path id="Path_19-29" data-name="Path 19" d="M199.4,991.784s-11.564.195-11.564,9.234,11.564,9.325,11.564,9.325h20.886s11.468.092,11.468-9.325-11.468-9.234-11.468-9.234Z" transform="translate(166.966 -429.92) rotate(13)" fill="url(#linear-gradient)"/>
        <path id="Path_19-30" data-name="Path 19" d="M199.4,991.784s-11.564.195-11.564,9.234,11.564,9.325,11.564,9.325h20.886s11.468.092,11.468-9.325-11.468-9.234-11.468-9.234Z" transform="translate(163.367 -414.33) rotate(13)" fill="url(#linear-gradient)"/>
        <path id="Path_19-31" data-name="Path 19" d="M199.4,991.784s-11.564.195-11.564,9.234,11.564,9.325,11.564,9.325h20.886s11.468.092,11.468-9.325-11.468-9.234-11.468-9.234Z" transform="translate(159.768 -398.74) rotate(13)" fill="url(#linear-gradient)"/>
        <path id="Path_19-32" data-name="Path 19" d="M199.4,991.784s-11.564.195-11.564,9.234,11.564,9.325,11.564,9.325h20.886s11.468.092,11.468-9.325-11.468-9.234-11.468-9.234Z" transform="translate(156.168 -383.15) rotate(13)" fill="url(#linear-gradient)"/>
        <path id="Path_19-33" data-name="Path 19" d="M199.4,991.784s-11.564.195-11.564,9.234,11.564,9.325,11.564,9.325h20.886s11.468.092,11.468-9.325-11.468-9.234-11.468-9.234Z" transform="translate(152.569 -367.561) rotate(13)" fill="url(#linear-gradient)"/>
        <path id="Path_19-34" data-name="Path 19" d="M199.4,991.784s-11.564.195-11.564,9.234,11.564,9.325,11.564,9.325h20.886s11.468.092,11.468-9.325-11.468-9.234-11.468-9.234Z" transform="translate(148.97 -351.971) rotate(13)" fill="url(#linear-gradient)"/>
        <path id="Path_19-35" data-name="Path 19" d="M199.4,991.784s-11.564.195-11.564,9.234,11.564,9.325,11.564,9.325h20.886s11.468.092,11.468-9.325-11.468-9.234-11.468-9.234Z" transform="translate(145.371 -336.381) rotate(13)" fill="url(#linear-gradient)"/>
        <path id="Path_19-36" data-name="Path 19" d="M199.4,991.784s-11.564.195-11.564,9.234,11.564,9.325,11.564,9.325h20.886s11.468.092,11.468-9.325-11.468-9.234-11.468-9.234Z" transform="translate(141.772 -320.791) rotate(13)" fill="url(#linear-gradient)"/>
      </g>
      <g id="right-upper-leg" transform="translate(490.511 900.338)">
        <path id="Path_19-37" data-name="Path 19" d="M11.564,18.559S0,18.364,0,9.325,11.564,0,11.564,0H32.45S43.918-.092,43.918,9.325,32.45,18.559,32.45,18.559Z" transform="translate(46.967 18.083) rotate(167)" fill="url(#linear-gradient-19)"/>
        <path id="Path_19-38" data-name="Path 19" d="M11.564,18.559S0,18.364,0,9.325,11.564,0,11.564,0H32.45S43.918-.092,43.918,9.325,32.45,18.559,32.45,18.559Z" transform="translate(50.566 33.673) rotate(167)" fill="url(#linear-gradient-19)"/>
        <path id="Path_19-39" data-name="Path 19" d="M11.564,18.559S0,18.364,0,9.325,11.564,0,11.564,0H32.45S43.918-.092,43.918,9.325,32.45,18.559,32.45,18.559Z" transform="translate(54.166 49.263) rotate(167)" fill="url(#linear-gradient-19)"/>
        <path id="Path_19-40" data-name="Path 19" d="M11.564,18.559S0,18.364,0,9.325,11.564,0,11.564,0H32.45S43.918-.092,43.918,9.325,32.45,18.559,32.45,18.559Z" transform="translate(57.765 64.853) rotate(167)" fill="url(#linear-gradient-19)"/>
        <path id="Path_19-41" data-name="Path 19" d="M11.564,18.559S0,18.364,0,9.325,11.564,0,11.564,0H32.45S43.918-.092,43.918,9.325,32.45,18.559,32.45,18.559Z" transform="translate(61.364 80.443) rotate(167)" fill="url(#linear-gradient-19)"/>
        <path id="Path_19-42" data-name="Path 19" d="M11.564,18.559S0,18.364,0,9.325,11.564,0,11.564,0H32.45S43.918-.092,43.918,9.325,32.45,18.559,32.45,18.559Z" transform="translate(64.963 96.033) rotate(167)" fill="url(#linear-gradient-19)"/>
        <path id="Path_19-43" data-name="Path 19" d="M11.564,18.559S0,18.364,0,9.325,11.564,0,11.564,0H32.45S43.918-.092,43.918,9.325,32.45,18.559,32.45,18.559Z" transform="translate(68.562 111.623) rotate(167)" fill="url(#linear-gradient-19)"/>
        <path id="Path_19-44" data-name="Path 19" d="M11.564,18.559S0,18.364,0,9.325,11.564,0,11.564,0H32.45S43.918-.092,43.918,9.325,32.45,18.559,32.45,18.559Z" transform="translate(72.162 127.213) rotate(167)" fill="url(#linear-gradient-19)"/>
        <path id="Path_19-45" data-name="Path 19" d="M11.564,18.559S0,18.364,0,9.325,11.564,0,11.564,0H32.45S43.918-.092,43.918,9.325,32.45,18.559,32.45,18.559Z" transform="translate(75.761 142.803) rotate(167)" fill="url(#linear-gradient-19)"/>
        <path id="Path_19-46" data-name="Path 19" d="M11.564,18.559S0,18.364,0,9.325,11.564,0,11.564,0H32.45S43.918-.092,43.918,9.325,32.45,18.559,32.45,18.559Z" transform="translate(79.36 158.393) rotate(167)" fill="url(#linear-gradient-19)"/>
        <path id="Path_19-47" data-name="Path 19" d="M11.564,18.559S0,18.364,0,9.325,11.564,0,11.564,0H32.45S43.918-.092,43.918,9.325,32.45,18.559,32.45,18.559Z" transform="translate(82.959 173.982) rotate(167)" fill="url(#linear-gradient-19)"/>
        <path id="Path_19-48" data-name="Path 19" d="M11.564,18.559S0,18.364,0,9.325,11.564,0,11.564,0H32.45S43.918-.092,43.918,9.325,32.45,18.559,32.45,18.559Z" transform="translate(86.559 189.572) rotate(167)" fill="url(#linear-gradient-19)"/>
      </g>
      <g id="left-lower-leg" transform="translate(102.024 687.461) rotate(-13)">
        <path id="Path_19-49" data-name="Path 19" d="M199.4,991.784s-11.564.195-11.564,9.234,11.564,9.325,11.564,9.325h20.886s11.468.092,11.468-9.325-11.468-9.234-11.468-9.234Z" transform="translate(181.363 -492.28) rotate(13)" fill="url(#linear-gradient)"/>
        <path id="Path_19-50" data-name="Path 19" d="M199.4,991.784s-11.564.195-11.564,9.234,11.564,9.325,11.564,9.325h20.886s11.468.092,11.468-9.325-11.468-9.234-11.468-9.234Z" transform="translate(177.764 -476.69) rotate(13)" fill="url(#linear-gradient)"/>
        <path id="Path_19-51" data-name="Path 19" d="M199.4,991.784s-11.564.195-11.564,9.234,11.564,9.325,11.564,9.325h20.886s11.468.092,11.468-9.325-11.468-9.234-11.468-9.234Z" transform="translate(174.164 -461.1) rotate(13)" fill="url(#linear-gradient)"/>
        <path id="Path_19-52" data-name="Path 19" d="M199.4,991.784s-11.564.195-11.564,9.234,11.564,9.325,11.564,9.325h20.886s11.468.092,11.468-9.325-11.468-9.234-11.468-9.234Z" transform="translate(170.565 -445.51) rotate(13)" fill="url(#linear-gradient)"/>
        <path id="Path_19-53" data-name="Path 19" d="M199.4,991.784s-11.564.195-11.564,9.234,11.564,9.325,11.564,9.325h20.886s11.468.092,11.468-9.325-11.468-9.234-11.468-9.234Z" transform="translate(166.966 -429.92) rotate(13)" fill="url(#linear-gradient)"/>
        <path id="Path_19-54" data-name="Path 19" d="M199.4,991.784s-11.564.195-11.564,9.234,11.564,9.325,11.564,9.325h20.886s11.468.092,11.468-9.325-11.468-9.234-11.468-9.234Z" transform="translate(163.367 -414.33) rotate(13)" fill="url(#linear-gradient)"/>
      </g>
      <g id="left-lower-leg-2" data-name="left-lower-leg" transform="translate(284.024 687.461) rotate(-13)">
        <path id="Path_19-55" data-name="Path 19" d="M199.4,991.784s-11.564.195-11.564,9.234,11.564,9.325,11.564,9.325h20.886s11.468.092,11.468-9.325-11.468-9.234-11.468-9.234Z" transform="translate(181.363 -492.28) rotate(13)" fill="url(#linear-gradient)"/>
        <path id="Path_19-56" data-name="Path 19" d="M199.4,991.784s-11.564.195-11.564,9.234,11.564,9.325,11.564,9.325h20.886s11.468.092,11.468-9.325-11.468-9.234-11.468-9.234Z" transform="translate(177.764 -476.69) rotate(13)" fill="url(#linear-gradient)"/>
        <path id="Path_19-57" data-name="Path 19" d="M199.4,991.784s-11.564.195-11.564,9.234,11.564,9.325,11.564,9.325h20.886s11.468.092,11.468-9.325-11.468-9.234-11.468-9.234Z" transform="translate(174.164 -461.1) rotate(13)" fill="url(#linear-gradient)"/>
        <path id="Path_19-58" data-name="Path 19" d="M199.4,991.784s-11.564.195-11.564,9.234,11.564,9.325,11.564,9.325h20.886s11.468.092,11.468-9.325-11.468-9.234-11.468-9.234Z" transform="translate(170.565 -445.51) rotate(13)" fill="url(#linear-gradient)"/>
        <path id="Path_19-59" data-name="Path 19" d="M199.4,991.784s-11.564.195-11.564,9.234,11.564,9.325,11.564,9.325h20.886s11.468.092,11.468-9.325-11.468-9.234-11.468-9.234Z" transform="translate(166.966 -429.92) rotate(13)" fill="url(#linear-gradient)"/>
        <path id="Path_19-60" data-name="Path 19" d="M199.4,991.784s-11.564.195-11.564,9.234,11.564,9.325,11.564,9.325h20.886s11.468.092,11.468-9.325-11.468-9.234-11.468-9.234Z" transform="translate(163.367 -414.33) rotate(13)" fill="url(#linear-gradient)"/>
      </g>
      <ellipse id="right-knee" cx="43.5" cy="47" rx="43.5" ry="47" transform="translate(516 1075)" fill="url(#linear-gradient-73)"/>
      <ellipse id="left-nee" cx="43.5" cy="47" rx="43.5" ry="47" transform="translate(334 1075)" fill="url(#linear-gradient-73)"/>
      <g id="left-foot" transform="translate(-8 5)">
        <path id="Path_43" data-name="Path 43" d="M486.1,1460.068c-.92-11.039-38.008-61-38.008-61s-52.894,5.979-95.669,23.917-75.892,40.015-73.132,46.455,65.313,14.718,123.266,10.119S487.022,1471.106,486.1,1460.068Z" transform="matrix(0.978, -0.208, 0.208, 0.978, -336.376, 158.02)" fill="url(#linear-gradient-75)"/>
        <path id="Path_41" data-name="Path 41" d="M342.414,1350.9l117.087-6.8s2.554,100.381-11.036,169.118-32.408,102.451-44.431,101.406-29.795-6.665-45.476-73.7S342.414,1350.9,342.414,1350.9Z" transform="translate(-13 -102)" fill="url(#linear-gradient-76)"/>
        <path id="Path_42" data-name="Path 42" d="M5.493,267.758V0" transform="translate(391.007 1242.5)" fill="none" stroke="#707070" stroke-width="2"/>
        <circle id="Ellipse_41" data-name="Ellipse 41" cx="5.5" cy="5.5" r="5.5" transform="translate(383 1250)" fill="#676767"/>
        <circle id="Ellipse_42" data-name="Ellipse 42" cx="5.5" cy="5.5" r="5.5" transform="translate(383 1285)" fill="#676767"/>
        <circle id="Ellipse_43" data-name="Ellipse 43" cx="5.5" cy="5.5" r="5.5" transform="translate(383 1320)" fill="#676767"/>
        <circle id="Ellipse_44" data-name="Ellipse 44" cx="5.5" cy="5.5" r="5.5" transform="translate(383 1355)" fill="#676767"/>
        <circle id="Ellipse_45" data-name="Ellipse 45" cx="5.5" cy="5.5" r="5.5" transform="translate(383 1390)" fill="#676767"/>
        <circle id="Ellipse_46" data-name="Ellipse 46" cx="5.5" cy="5.5" r="5.5" transform="translate(383 1425)" fill="#676767"/>
        <circle id="Ellipse_47" data-name="Ellipse 47" cx="5.5" cy="5.5" r="5.5" transform="translate(383 1460)" fill="#676767"/>
        <circle id="Ellipse_48" data-name="Ellipse 48" cx="5.5" cy="5.5" r="5.5" transform="translate(383 1495)" fill="#676767"/>
      </g>
      <g id="right-foot" transform="translate(501.539 1247.109)">
        <path id="Path_43-2" data-name="Path 43" d="M206.969,20.825c-.92,11.039-38.008,61-38.008,61s-52.894-5.979-95.669-23.917S-2.6,17.89.161,11.451,65.473-3.267,123.427,1.332,207.889,9.786,206.969,20.825Z" transform="matrix(-0.978, -0.208, 0.208, -0.978, 202.469, 306.407)" fill="url(#linear-gradient-77)"/>
        <path id="Path_41-2" data-name="Path 41" d="M459.692,1350.9l-117.087-6.8s-2.554,100.381,11.036,169.118,32.408,102.451,44.431,101.406,29.795-6.665,45.476-73.7S459.692,1350.9,459.692,1350.9Z" transform="translate(-342.086 -1344.109)" fill="url(#linear-gradient-78)"/>
        <path id="Path_42-2" data-name="Path 42" d="M5.493,267.758V0" transform="translate(45.027 0.391)" fill="none" stroke="#707070" stroke-width="2"/>
        <circle id="Ellipse_41-2" data-name="Ellipse 41" cx="5.5" cy="5.5" r="5.5" transform="translate(53.02 7.891)" fill="#676767"/>
        <circle id="Ellipse_42-2" data-name="Ellipse 42" cx="5.5" cy="5.5" r="5.5" transform="translate(53.02 42.891)" fill="#676767"/>
        <circle id="Ellipse_43-2" data-name="Ellipse 43" cx="5.5" cy="5.5" r="5.5" transform="translate(53.02 77.891)" fill="#676767"/>
        <circle id="Ellipse_44-2" data-name="Ellipse 44" cx="5.5" cy="5.5" r="5.5" transform="translate(53.02 112.891)" fill="#676767"/>
        <circle id="Ellipse_45-2" data-name="Ellipse 45" cx="5.5" cy="5.5" r="5.5" transform="translate(53.02 147.891)" fill="#676767"/>
        <circle id="Ellipse_46-2" data-name="Ellipse 46" cx="5.5" cy="5.5" r="5.5" transform="translate(53.02 182.891)" fill="#676767"/>
        <circle id="Ellipse_47-2" data-name="Ellipse 47" cx="5.5" cy="5.5" r="5.5" transform="translate(53.02 217.891)" fill="#676767"/>
        <circle id="Ellipse_48-2" data-name="Ellipse 48" cx="5.5" cy="5.5" r="5.5" transform="translate(53.02 252.891)" fill="#676767"/>
      </g>
    </g>
    <g id="head">
      <g id="left-ear" transform="translate(-39 -305)">
        <path id="Path_2" data-name="Path 2" d="M343,410.611c-11.908-16.384-16.388-3.749-21.7,2.062-2.406,2.638-5.186,3.648-9.215-2.062-11.886-16.844-21.97-.563-21.463,0" transform="translate(4 105)" fill="none" stroke="#8b6b4b" stroke-width="3"/>
        <ellipse id="Ellipse_13" data-name="Ellipse 13" cx="29" cy="50.5" rx="29" ry="50.5" transform="translate(343 461)" fill="url(#linear-gradient-79)"/>
        <circle id="Ellipse_14" data-name="Ellipse 14" cx="17" cy="17" r="17" transform="translate(267 495)" fill="#bc8c59"/>
      </g>
      <g id="right-ear" transform="translate(561 156)">
        <path id="Path_2-2" data-name="Path 2" d="M290.6,410.611c11.908-16.384,16.388-3.749,21.7,2.062,2.406,2.638,5.186,3.648,9.215-2.062,11.886-16.844,21.97-.563,21.463,0" transform="translate(-236.604 -356)" fill="none" stroke="#8b6b4b" stroke-width="3"/>
        <ellipse id="Ellipse_13-2" data-name="Ellipse 13" cx="29" cy="50.5" rx="29" ry="50.5" fill="url(#linear-gradient-79)"/>
        <circle id="Ellipse_14-2" data-name="Ellipse 14" cx="17" cy="17" r="17" transform="translate(100 34)" fill="#bc8c59"/>
      </g>
      <g id="head-back" transform="translate(327 60)" stroke="#707070" stroke-width="1" fill="url(#linear-gradient-81)">
        <circle cx="133.5" cy="133.5" r="133.5" stroke="none"/>
        <circle cx="133.5" cy="133.5" r="133" fill="none"/>
      </g>
      <g id="eyes" transform="translate(-45 -305)">
        <ellipse id="Ellipse_2" data-name="Ellipse 2" cx="21.5" cy="39" rx="21.5" ry="39" transform="translate(522 438)" fill="url(#linear-gradient-82)"/>
        <ellipse id="Ellipse_15" data-name="Ellipse 15" cx="21.5" cy="39" rx="21.5" ry="39" transform="translate(448 438)" fill="url(#linear-gradient-82)"/>
        <ellipse id="Ellipse_3" data-name="Ellipse 3" cx="6.5" cy="13" rx="6.5" ry="13" transform="translate(469 449)" fill="#fff"/>
        <ellipse id="Ellipse_4" data-name="Ellipse 4" cx="6.5" cy="13" rx="6.5" ry="13" transform="translate(544 449)" fill="#fff"/>
      </g>
      <g id="jaw" transform="translate(-45 -305)">
        <path id="jaw-back" d="M367.007,498.5l66.642,87.474s28.558-12.376,71.4-12.376,70.45,12.376,70.45,12.376L643.1,498.5s-.952,43.68-4.76,83.19-28.085,82.826-28.085,82.826H390.332S373.2,622.151,367.007,581.69,367.007,498.5,367.007,498.5Z" stroke="#707070" stroke-width="1" fill="url(#linear-gradient-84)"/>
        <rect id="Rectangle_1" data-name="Rectangle 1" width="35" height="54" transform="translate(518 611)" fill="url(#linear-gradient-85)"/>
        <g id="Repeat_Grid_1" data-name="Repeat Grid 1" transform="translate(527 616)" clip-path="url(#clip-path)">
          <g transform="translate(-527 -616)">
            <circle id="Ellipse_5" data-name="Ellipse 5" cx="6.5" cy="6.5" r="6.5" transform="translate(527 616)" fill="#8b6b4b"/>
          </g>
          <g transform="translate(-494 -616)">
            <circle id="Ellipse_5-2" data-name="Ellipse 5" cx="6.5" cy="6.5" r="6.5" transform="translate(527 616)" fill="#8b6b4b"/>
          </g>
          <g transform="translate(-461 -616)">
            <circle id="Ellipse_5-3" data-name="Ellipse 5" cx="6.5" cy="6.5" r="6.5" transform="translate(527 616)" fill="#8b6b4b"/>
          </g>
        </g>
        <line id="Line_1" data-name="Line 1" y1="53" transform="translate(517.5 611.5)" fill="none" stroke="#8b6b4b" stroke-width="2"/>
        <line id="Line_2" data-name="Line 2" x1="115" transform="translate(517.5 611.5)" fill="none" stroke="#8b6b4b" stroke-width="2"/>
        <path id="Path_1" data-name="Path 1" d="M458.494,374.614s-15.449,52.255-16.28,103.1S455.171,578,455.171,578" fill="none" stroke="#707070" stroke-width="2"/>
        <circle id="Ellipse_6" data-name="Ellipse 6" cx="5.5" cy="5.5" r="5.5" transform="translate(439 392)" fill="#676767"/>
        <circle id="Ellipse_7" data-name="Ellipse 7" cx="5.5" cy="5.5" r="5.5" transform="translate(433 427)" fill="#676767"/>
        <circle id="Ellipse_9" data-name="Ellipse 9" cx="5.5" cy="5.5" r="5.5" transform="translate(429 462)" fill="#676767"/>
        <circle id="Ellipse_10" data-name="Ellipse 10" cx="5.5" cy="5.5" r="5.5" transform="translate(429 497)" fill="#676767"/>
        <circle id="Ellipse_11" data-name="Ellipse 11" cx="5.5" cy="5.5" r="5.5" transform="translate(434 532)" fill="#676767"/>
        <circle id="Ellipse_12" data-name="Ellipse 12" cx="5.5" cy="5.5" r="5.5" transform="translate(441 567)" fill="#676767"/>
      </g>
    </g>
    <g id="lower-body">
      <g id="waste">
        <path id="Path_18" data-name="Path 18" d="M345.659,1097.416s81.139,11.139,164.22,11.139,168.1-11.139,168.1-11.139-85.022-7.519-168.1-7.519S345.659,1097.416,345.659,1097.416Z" transform="translate(-44 -296)" fill="#75433c"/>
        <path id="Path_17" data-name="Path 17" d="M280.325,754.557s93.449-6.4,185.553-6.4,182.861,6.4,182.861,6.4l-16.708,65.069s-83.332-6.5-166.153-6.5-165.132,6.5-165.132,6.5Z" transform="translate(2 -18)" fill="url(#linear-gradient-86)"/>
        <circle id="Ellipse_24" data-name="Ellipse 24" cx="5.5" cy="5.5" r="5.5" transform="translate(623 784)" fill="#676767"/>
        <circle id="Ellipse_25" data-name="Ellipse 25" cx="5.5" cy="5.5" r="5.5" transform="translate(632 739)" fill="#676767"/>
        <circle id="Ellipse_26" data-name="Ellipse 26" cx="5.5" cy="5.5" r="5.5" transform="translate(583 736)" fill="#676767"/>
        <circle id="Ellipse_27" data-name="Ellipse 27" cx="5.5" cy="5.5" r="5.5" transform="translate(534 733)" fill="#676767"/>
        <circle id="Ellipse_28" data-name="Ellipse 28" cx="5.5" cy="5.5" r="5.5" transform="translate(485 731)" fill="#676767"/>
        <circle id="Ellipse_29" data-name="Ellipse 29" cx="5.5" cy="5.5" r="5.5" transform="translate(436 732)" fill="#676767"/>
        <circle id="Ellipse_30" data-name="Ellipse 30" cx="5.5" cy="5.5" r="5.5" transform="translate(387 733)" fill="#676767"/>
        <circle id="Ellipse_31" data-name="Ellipse 31" cx="5.5" cy="5.5" r="5.5" transform="translate(336 735)" fill="#676767"/>
        <circle id="Ellipse_32" data-name="Ellipse 32" cx="5.5" cy="5.5" r="5.5" transform="translate(289 738)" fill="#676767"/>
        <circle id="Ellipse_33" data-name="Ellipse 33" cx="5.5" cy="5.5" r="5.5" transform="translate(304 784)" fill="#676767"/>
      </g>
      <path id="hips" d="M341.5,803.226s-11.05,123.889,127.256,124.91,126.239-124.91,126.239-124.91-62.865-4.113-126.239-4.113S341.5,803.226,341.5,803.226Z" fill="url(#radial-gradient)"/>
    </g>
    <g id="upper-body" transform="translate(-44 -289)">
      <path id="right-shoulder" d="M130.251,456.132s53.1-21.639,67.575,31.374-42.234,61.421-42.234,61.421Z" transform="translate(634 289)" fill="url(#linear-gradient-87)"/>
      <path id="left-shoulder" d="M200.191,456.132s-53.1-21.639-67.575,31.374,42.234,61.421,42.234,61.421Z" transform="translate(46 289)" fill="url(#linear-gradient-88)"/>
      <g id="Repeat_Grid_2" data-name="Repeat Grid 2" transform="translate(448.363 648.788)" clip-path="url(#clip-path-2)">
        <g transform="translate(-449.363 -664.788)">
          <path id="Path_3" data-name="Path 3" d="M431.511,709.8h93.513s8,1.1,8,9.553-8,10.474-8,10.474H431.511a10.749,10.749,0,0,1-7.687-10.474A9.247,9.247,0,0,1,431.511,709.8Z" transform="translate(25 -45)" fill="url(#linear-gradient-89)"/>
        </g>
        <g transform="translate(-449.363 -644.788)">
          <path id="Path_3-2" data-name="Path 3" d="M431.511,709.8h93.513s8,1.1,8,9.553-8,10.474-8,10.474H431.511a10.749,10.749,0,0,1-7.687-10.474A9.247,9.247,0,0,1,431.511,709.8Z" transform="translate(25 -45)" fill="url(#linear-gradient-89)"/>
        </g>
        <g transform="translate(-449.363 -624.788)">
          <path id="Path_3-3" data-name="Path 3" d="M431.511,709.8h93.513s8,1.1,8,9.553-8,10.474-8,10.474H431.511a10.749,10.749,0,0,1-7.687-10.474A9.247,9.247,0,0,1,431.511,709.8Z" transform="translate(25 -45)" fill="url(#linear-gradient-89)"/>
        </g>
      </g>
      <g id="chest">
        <path id="Path_7" data-name="Path 7" d="M212.375,902.227s147.93-30.758,293.663-30.758,289.269,30.758,289.269,30.758L668.756,960.813s-58.544-13.868-162.717-13.868S332.45,960.813,332.45,960.813Z" transform="translate(1 -13)" fill="url(#linear-gradient-92)"/>
        <path id="Path_4" data-name="Path 4" d="M256.315,722.807S417.427,707.428,503.841,706.7s255.582,16.111,255.582,16.111,12.267,24.167,21.97,66.642S798.969,889.7,798.969,889.7,656.9,859.771,510.432,859.02,212.375,889.7,212.375,889.7s8.056-62.193,19.041-103.917S256.315,722.807,256.315,722.807Z" fill="url(#linear-gradient-93)"/>
        <path id="Path_6" data-name="Path 6" d="M359.573,715.484s-9.154,16.66-16.111,54.925-11.717,98.132-11.717,98.132" fill="none" stroke="#707070" stroke-width="2"/>
        <circle id="Ellipse_16" data-name="Ellipse 16" cx="5.5" cy="5.5" r="5.5" transform="translate(329 734)" fill="#676767"/>
        <circle id="Ellipse_17" data-name="Ellipse 17" cx="5.5" cy="5.5" r="5.5" transform="translate(321 772)" fill="#676767"/>
        <circle id="Ellipse_18" data-name="Ellipse 18" cx="5.5" cy="5.5" r="5.5" transform="translate(318 810)" fill="#676767"/>
        <circle id="Ellipse_19" data-name="Ellipse 19" cx="5.5" cy="5.5" r="5.5" transform="translate(316 848)" fill="#676767"/>
        <circle id="Ellipse_20" data-name="Ellipse 20" cx="5.5" cy="5.5" r="5.5" transform="translate(547 756)" fill="#676767"/>
        <circle id="Ellipse_21" data-name="Ellipse 21" cx="5.5" cy="5.5" r="5.5" transform="translate(612 757)" fill="#676767"/>
        <circle id="Ellipse_22" data-name="Ellipse 22" cx="5.5" cy="5.5" r="5.5" transform="translate(676 762)" fill="#676767"/>
        <circle id="Ellipse_23" data-name="Ellipse 23" cx="5.5" cy="5.5" r="5.5" transform="translate(732 770)" fill="#676767"/>
        <path id="Path_8" data-name="Path 8" d="M534.8,707.6v19.207c0,16.3,3.57,45.055,3.57,45.055s53.373.286,107.818,4.927,109.96,13.638,109.96,13.638" fill="none" stroke="#707070" stroke-width="2"/>
        <path id="Path_11" data-name="Path 11" d="M0,0,43.749,69.247" transform="translate(316.5 873.5)" fill="none" stroke="#895c52" stroke-width="2"/>
        <line id="Line_4" data-name="Line 4" x2="14" y2="72" transform="translate(406.5 864.5)" fill="none" stroke="#895c52" stroke-width="2"/>
        <path id="Path_10" data-name="Path 10" d="M0,0V74" transform="translate(499.5 859.5)" fill="none" stroke="#895c52" stroke-width="2"/>
        <path id="Path_9" data-name="Path 9" d="M32,0,1.5,70.223" transform="translate(561.5 864.5)" fill="none" stroke="#895c52" stroke-width="2"/>
        <line id="Line_7" data-name="Line 7" x1="70" y2="67" transform="translate(627.5 873.5)" fill="none" stroke="#895c52" stroke-width="2"/>
      </g>
      <g id="torsoe">
        <path id="Path_12" data-name="Path 12" d="M319.257,618.986s-10.156.622-10.156,12.852,10.156,12.138,10.156,12.138,70.8-7.783,141.288-7.783,140.663,7.783,140.663,7.783,9.282-.7,9.282-12.138-9.282-12.852-9.282-12.852S531.032,609.7,460.545,609.7,319.257,618.986,319.257,618.986Z" transform="translate(44 288)" fill="url(#linear-gradient)"/>
        <path id="Path_13" data-name="Path 13" d="M325.7,618.986s-10.156.622-10.156,12.852S325.7,643.977,325.7,643.977s64.353-6.865,134.841-6.865,135.613,6.865,135.613,6.865,9.282-.7,9.282-12.138-9.282-12.852-9.282-12.852-65.125-6.08-135.613-6.08S325.7,618.986,325.7,618.986Z" transform="translate(44 309)" fill="url(#linear-gradient)"/>
        <path id="Path_14" data-name="Path 14" d="M329.971,618.986s-10.156.622-10.156,12.852,10.156,12.138,10.156,12.138,60.086-2.945,130.574-2.945S591.5,643.977,591.5,643.977s9.282-.7,9.282-12.138-9.282-12.852-9.282-12.852a1225.73,1225.73,0,0,0-130.953-7.3A1213.8,1213.8,0,0,0,329.971,618.986Z" transform="translate(44 332)" fill="url(#linear-gradient)"/>
        <path id="Path_15" data-name="Path 15" d="M336.309,618.986s-10.156.622-10.156,12.852,10.156,12.138,10.156,12.138H584.738s9.282-.7,9.282-12.138-9.282-12.852-9.282-12.852-53.705-3.314-124.193-3.314S336.309,618.986,336.309,618.986Z" transform="translate(44 356)" fill="url(#linear-gradient)"/>
        <path id="Path_16" data-name="Path 16" d="M343.181,618.986s-10.156.622-10.156,12.852,10.156,12.138,10.156,12.138H579.823s9.282-.7,9.282-12.138-9.282-12.852-9.282-12.852H343.181Z" transform="translate(43 378)" fill="url(#linear-gradient)"/>
      </g>
    </g>
  </g>
</svg>
