<svg id="Layer_1" data-name="Layer 1" xmlns="http://www.w3.org/2000/svg" width="285.24" height="125.87">
  <defs>
    <style>
      .cls-1{fill:none;stroke:#375e88;stroke-width:17px}.cls-2{fill:#375e88}
    </style>
  </defs>
  <g id="that-logo">
    <path id="Path_27" data-name="Path 27" class="cls-1" d="M42.52 39.58L12 70.08l30.5 30.5"/>
    <path id="Path_28" data-name="Path 28" class="cls-2" d="M98.07 125.87v-11.31H59.63l14-33.76-6.57 4.7 21.21-42.26-7 3.29L105.17 0l23.58 46.53-7.51-3.29 21.44 42.26-6.94-4.7 16.48 33.76h-39.59v11.31z"/>
    <path id="Path_29" data-name="Path 29" class="cls-1" d="M242.72 39.58l30.5 30.5-30.5 30.5"/>
    <path id="Path_30" data-name="Path 30" class="cls-2" d="M187.17 125.87v-11.31h38.45l-14-33.76 6.57 4.7L197 43.24l7 3.29L180.08 0 156.5 46.53l7.5-3.29-21.44 42.26 6.94-4.7-16.5 33.76h39.59v11.31z"/>
  </g>
</svg>
