<svg xmlns="http://www.w3.org/2000/svg" width="285.238" height="125.874" viewBox="0 0 285.238 125.874">
  <g id="that-logo" transform="translate(-490.162 -1143.871)">
    <path id="Path_27" data-name="Path 27" d="M544.68,7937.5l-30.5,30.5,30.5,30.5" transform="translate(-12 -6754.048)" fill="none" stroke="#375e88" stroke-width="17"/>
    <path id="Path_28" data-name="Path 28" d="M660.72,8039.745V8028.43H622.271l14.038-33.757-6.573,4.694,21.175-42.255-7.043,3.286,23.945-46.527,23.58,46.527-7.507-3.286,21.44,42.255-6.938-4.694,16.479,33.757H675.278v11.315Z" transform="translate(-72.486 -6770)" fill="#375e88"/>
    <path id="Path_29" data-name="Path 29" d="M514.183,7937.5l30.5,30.5-30.5,30.5" transform="translate(218.699 -6754.048)" fill="none" stroke="#375e88" stroke-width="17"/>
    <path id="Path_30" data-name="Path 30" d="M676.417,8039.745V8028.43h38.449l-14.038-33.757,6.573,4.694-21.175-42.255,7.043,3.286-23.945-46.527-23.58,46.527,7.507-3.286-21.44,42.255,6.938-4.694-16.479,33.757h39.588v11.315Z" transform="translate(0.911 -6770)" fill="#375e88"/>
  </g>
</svg>
