<svg xmlns="http://www.w3.org/2000/svg" width="717.249" height="837.366" viewBox="0 0 717.249 837.366">
  <g id="girl-bear" transform="translate(-274.418 -53.044)">
    <g id="face" transform="translate(-109 -251)">
      <g id="face-bg" transform="translate(17.763 31.857)">
        <path id="face-base" d="M256.253,472.7l-.254.05v-.1L80.2,438.315,0,233.661,51.039,74.978S40,73.16,34.892,55.875,35.732,32,51.039,20.71,90.72,2.265,112.958.157,133.1,17.853,133.1,29.608s-10.912,26.268-10.912,26.268L256,20.843v-.134L293.433,10.5,273.452,25.625l116.863,30.25S379.4,41.361,379.4,29.607,377.311-1.953,399.55.156s46.612,9.267,61.919,20.553,21.25,17.881,16.146,35.166-16.146,19.1-16.146,19.1l51.039,158.682L432.3,438.315l-175.8,34.333v.1Z" transform="translate(469.667 287.207)" fill="#e3a737"/>
      </g>
      <g id="bow" transform="translate(237.097 143.471) rotate(-21)">
        <path id="Path_23" data-name="Path 23" d="M223.1,334.172v44.414s-30.321,48.722-40.429,29.862-10.107-86.734,0-105.3S223.1,334.172,223.1,334.172Z" transform="translate(-5 0)" fill="#769ed1"/>
        <path id="Path_24" data-name="Path 24" d="M175.092,334.172v44.414s30.322,48.723,40.429,29.862,10.107-86.734,0-105.3S175.092,334.172,175.092,334.172Z" transform="translate(107.71)" fill="#769ed1"/>
        <rect id="Rectangle_4" data-name="Rectangle 4" width="69.36" height="43.35" rx="9" transform="translate(215.805 333.684)"/>
      </g>
    </g>
    <path id="left-upper-arm" d="M781.5,7430.682s-160.55,192.369-153.911,223.928,62.295,66.841,110.588,0l114.214-117.027Z" transform="translate(-2618.467 -6285.269) rotate(-18)" fill="#e3a737"/>
    <path id="right-upper-arm" d="M154.111,261.947S-6.439,69.578.2,38.019s62.295-66.841,110.588,0L225,155.046Z" transform="translate(897.793 837.247) rotate(-159)" fill="#e3a737"/>
    <g id="Shirt" transform="translate(-325 -153)">
      <path id="Path_25" data-name="Path 25" d="M789.713,7423.168l-48.164,42.847,24.433,347.395h380.354l28.44-357.282-45.579-32.959s-83.882,32.959-168.753,32.959S789.713,7423.168,789.713,7423.168Z" transform="translate(0 -6770)" fill="#e7e5da"/>
      <path id="Path_26" data-name="Path 26" d="M770.806,7443.6s93.066,38.892,185.682,38.892,195.782-38.892,195.782-38.892l-23.074-20.435s-87.343,32.959-172.708,32.959-168.753-32.959-168.753-32.959Z" transform="translate(0 -6770)" fill="#cbc9bd"/>
      <g id="that-logo" transform="translate(326.815 -380.191)">
        <path id="Path_27" data-name="Path 27" d="M544.68,7937.5l-30.5,30.5,30.5,30.5" transform="translate(-12 -6754.048)" fill="none" stroke="#375e88" stroke-width="17"/>
        <path id="Path_28" data-name="Path 28" d="M660.72,8039.745V8028.43H622.271l14.038-33.757-6.573,4.694,21.175-42.255-7.043,3.286,23.945-46.527,23.58,46.527-7.507-3.286,21.44,42.255-6.938-4.694,16.479,33.757H675.278v11.315Z" transform="translate(-72.486 -6770)" fill="#375e88"/>
        <path id="Path_29" data-name="Path 29" d="M514.183,7937.5l30.5,30.5-30.5,30.5" transform="translate(218.699 -6754.048)" fill="none" stroke="#375e88" stroke-width="17"/>
        <path id="Path_30" data-name="Path 30" d="M676.417,8039.745V8028.43h38.449l-14.038-33.757,6.573,4.694-21.175-42.255,7.043,3.286-23.945-46.527-23.58,46.527,7.507-3.286-21.44,42.255,6.938-4.694-16.479,33.757h39.588v11.315Z" transform="translate(0.911 -6770)" fill="#375e88"/>
      </g>
    </g>
    <path id="left-lower-arm" d="M625.647,7654.61c4.5,28.694,196.921,141.783,196.921,141.783s.422,12.941,14.066,23.631,22.6,10.708,22.6,10.708,16.689-1.229,27.66-1.229,34.138,9.65,34.138,9.65l34.832-51.443s-11.883-6.106-31.153-11.873-41.938-2.512-41.938-2.512l27.8-12.375,2.242-11.84a110.423,110.423,0,0,0-40.016,1.8c-21.239,5.063-30.531,7.221-30.531,7.221s-136.72-131.206-150.223-140.208-25.017-7.089-43.885,0C633.31,7623.5,623.626,7641.726,625.647,7654.61Z" transform="translate(-7155.106 -558.128) rotate(-75)" fill="#e3a737"/>
    <path id="right-lower-arm" d="M.266,184.544C4.767,155.85,197.188,42.761,197.188,42.761s.422-12.941,14.066-23.631,22.6-10.708,22.6-10.708S250.539,9.65,261.51,9.65,295.648,0,295.648,0L330.48,51.444S318.6,57.55,299.327,63.317s-41.938,2.512-41.938,2.512l27.8,12.375,2.242,11.84a110.423,110.423,0,0,1-40.016-1.8c-21.239-5.063-30.531-7.221-30.531-7.221S80.16,212.226,66.657,221.228s-25.017,7.089-43.885,0C7.929,215.652-1.755,197.428.266,184.544Z" transform="matrix(-0.259, -0.966, 0.966, -0.259, 671.791, 866.722)" fill="#e3a737"/>
  </g>
</svg>
