<svg xmlns="http://www.w3.org/2000/svg" width="176.685" height="254.235" viewBox="0 0 176.685 254.235">
  <g id="muzzle-nose" transform="translate(-657.514 -473.228)">
    <path id="muzzle-left" d="M745.127,451.228l-61.152,29.339L657.514,594.685l17.455,81.265,70.159,29.339Z" transform="translate(0 22)" fill="#d5d1c2"/>
    <path id="muzzle-right" d="M659.809,451.228l61.152,29.339L749.2,595.61,729.968,675.95l-70.159,29.339V451.228Z" transform="translate(85 22)" fill="#e5e7da"/>
    <path id="nose" d="M674.969,578.659h140.9L745.5,635.744Z" transform="translate(0 -15)"/>
    <line id="nose-line" y1="73" transform="translate(745.5 602.5)" fill="none" stroke="#000" stroke-width="6"/>
    <path id="mouth" d="M717.682,861.374c-37.465,1.5-74.755-14.338-74.755-14.338s42.116,70.42,74.755,70.42,75.1-70.42,75.1-70.42S755.147,859.871,717.682,861.374Z" transform="translate(28 -210)"/>
  </g>
</svg>
