<svg xmlns="http://www.w3.org/2000/svg" xmlns:xlink="http://www.w3.org/1999/xlink" width="1801.818" height="906.029" viewBox="0 0 1801.818 906.029">
  <defs>
    <linearGradient id="linear-gradient" y1="0.5" x2="1" y2="0.5" gradientUnits="objectBoundingBox">
      <stop offset="0" stop-color="#674831"/>
      <stop offset="1" stop-color="#482d1c"/>
    </linearGradient>
    <linearGradient id="linear-gradient-2" x1="0.489" y1="0.551" x2="0.484" y2="0.233" gradientUnits="objectBoundingBox">
      <stop offset="0" stop-color="#684a32"/>
      <stop offset="1" stop-color="#4c321f"/>
    </linearGradient>
    <linearGradient id="linear-gradient-3" x1="0.532" y1="0.442" x2="0.527" y2="0.099" xlink:href="#linear-gradient-2"/>
    <linearGradient id="linear-gradient-4" x1="0.518" y1="0.335" x2="0.511" y2="0.073" gradientUnits="objectBoundingBox">
      <stop offset="0" stop-color="#684a32"/>
      <stop offset="1" stop-color="#472e1c"/>
    </linearGradient>
    <linearGradient id="linear-gradient-6" x1="0.511" y1="0.551" x2="0.516" y2="0.233" xlink:href="#linear-gradient-2"/>
    <linearGradient id="linear-gradient-7" x1="0.468" y1="0.442" x2="0.473" y2="0.099" xlink:href="#linear-gradient-2"/>
    <linearGradient id="linear-gradient-8" x1="0.482" y1="0.335" x2="0.489" y2="0.073" xlink:href="#linear-gradient-4"/>
  </defs>
  <g id="signs" transform="translate(-23.205 -1093.972)">
    <g id="left-sign" transform="translate(-364 38)">
      <path id="Path_31" data-name="Path 31" d="M2761.4,8732V7947.352l21.126-18.154,9.56,42.359,9.442-80.684,30.686-8.271v46.6l14.163-38.325h14.163l11.8,15.935L2860.54,8732Z" transform="translate(-1990 -6770)" fill="url(#linear-gradient)"/>
      <path id="Path_37" data-name="Path 37" d="M3287.759,8413.291s-58.874-15.657-122.941-15.657h-133.33s-264.841,10.546-350.772,15.657c-103.578,6.162-135.333,20.171-189.607,20.171-49.816,0-79.069-21.36-91.592-23.952-11.84-2.45-7.246,13.867-7.246,13.867v34.29l34.089,16.137-26.843-3.79-7.246,17.91V8556.3s250.145-25.517,474.017-30.055,421.471,11.9,421.471,11.9l5.081-17.64Z" transform="translate(-1996 -6754)" fill="#4c321f"/>
      <path id="Path_35" data-name="Path 35" d="M2384.205,8204.352v53.633h18.154l-10.1,11.9-8.05,14.119v26.425l34.291,10.085-26.241,7.369-8.05,14.617v52.444s207.761,6.052,433.675,0,469.983-24.205,469.983-24.205l6.9-18.985-6.9-59.479-28.24-8.271,28.24-14.119,6.9-16.368-6.9-17.923-74.633-14.119,74.633-17.123,6.9-17.168s-21.519-24.205-121.869-24.205-286.427,24.205-286.427,24.205l-300.547,17.168-193.66-13.267Z" transform="translate(-1997 -6755)" fill="#4c321f"/>
      <path id="Path_34" data-name="Path 34" d="M2418.5,7993.543s65.957,15.632,203.624,0,195.256-6.052,347.043-24.206,282.291,0,282.291,0l-12,24.206L3209,8003.628l105.091,16.338,12,49.547-12,19.034L3209,8104.483l82.7,10.085,12,19.291-12,19.034s-133.633,9.733-276.342,22.39-145.281,19.111-294.5,28.239c-40.817,2.5-88.922,4.186-134.944,0-45.376-4.125-88.752-14.12-88.752-14.12H2418.5l-16.137-46.6,16.137-19.034h15.935l-32.072-9.205,3.833-68.379,28.239-12.3-28.239-20.171Z" transform="translate(-2002 -6755)" fill="#4c321f" stroke="#707070" stroke-width="1"/>
      <path id="Path_33" data-name="Path 33" d="M2384.205,8204.352v53.633h18.154L2384.205,8284v26.425l34.291,10.085-34.291,21.986v52.444s207.761,6.052,433.675,0,469.983-24.205,469.983-24.205v-78.465l-28.24-8.271,28.24-14.119v-34.291l-74.633-14.119,74.633-17.123v-17.168s-14.624-24.205-114.974-24.205-286.427,24.205-286.427,24.205l-300.547,17.168Z" transform="translate(-1990 -6765)" fill="url(#linear-gradient-2)"/>
      <path id="Path_36" data-name="Path 36" d="M3287.759,8413.291s-58.874-15.657-122.941-15.657h-133.33s-264.841,10.546-350.772,15.657c-103.578,6.162-135.333,20.171-189.607,20.171-99.039,0-98.837-10.085-98.837-10.085v34.29l34.089,16.137-34.089,14.12V8556.3s250.145-25.517,474.017-30.055,421.471,11.9,421.471,11.9Z" transform="translate(-1990 -6770)" fill="url(#linear-gradient-3)"/>
      <path id="Path_32" data-name="Path 32" d="M2434.431,8003.628s76.145,15.632,213.812,0,169.133-16.137,320.92-34.291,270.291-10.085,270.291-10.085v34.291L3209,8003.628l105.091,16.338v68.581L3209,8104.483l82.7,10.085v38.325s-133.633,9.733-276.342,22.39-145.281,19.111-294.5,28.239c-40.817,2.5-88.922,4.186-134.944,0-45.376-4.125-88.752-14.12-88.752-14.12H2418.5l-16.137-46.6,32.072-18.154-32.072-10.085,3.833-68.379,28.239-12.3-28.239-20.171Z" transform="translate(-1990 -6770)" fill="url(#linear-gradient-4)"/>
      <path id="Path_38" data-name="Path 38" d="M2778.928,8547.647s3.1,60.823-15.516,91.7" transform="translate(-1990 -6777.748)" fill="none" stroke="#4c321f" stroke-width="6"/>
      <path id="Path_39" data-name="Path 39" d="M2800.651,8547.647s-1.862,117.767-34.291,141.2" transform="translate(-1990 -6777.748)" fill="none" stroke="#4c321f" stroke-width="6"/>
      <path id="Path_40" data-name="Path 40" d="M2816.872,8547.647c-.705-1.457-23.979,152.56-11.567,184.787" transform="translate(-1990 -6777.747)" fill="none" stroke="#4c321f" stroke-width="6"/>
      <path id="Path_41" data-name="Path 41" d="M2832.482,8547.647s-27.177,152.285-11.66,187.89" transform="translate(-1990 -6777.748)" fill="none" stroke="#4c321f" stroke-width="6"/>
      <path id="Path_42" data-name="Path 42" d="M2852.223,8547.647s-7.816,35.268-9.267,72.9c-.939,24.327.833,49.743,9.267,66.9" transform="translate(-1990 -6777.748)" fill="none" stroke="#4c321f" stroke-width="6"/>
      <path id="Path_43" data-name="Path 43" d="M2390.359,8539.89s66.056-17.456,149.621-23.274,98.139,5.779,184.641,0,53.918-17.339,161.367-23.118,168.349-7.37,268.428,0,131.887,29.48,131.887,29.48" transform="translate(-1990 -6770)" fill="none" stroke="#4c321f" stroke-width="10"/>
      <path id="Path_44" data-name="Path 44" d="M3287.759,8493.5s-50.355-3.84-122.48-10.861-166.022-17.224-166.022-17.224-195.89,15.284-328.941,17.224-133.05-.155-203.26-9.465-77.58-27.774-77.58-27.774" transform="translate(-1990 -6770)" fill="none" stroke="#4c321f" stroke-width="10"/>
      <path id="Path_45" data-name="Path 45" d="M3286.3,8454.551s-140.42-21.566-290.151-21.566-308.77,21.566-308.77,21.566l-183.09-12.412" transform="translate(-1990 -6770)" fill="none" stroke="#4c321f" stroke-width="10"/>
      <path id="Path_46" data-name="Path 46" d="M3269.081,8412.634s-155.548,12.592-297.908,12.592-271.531-12.592-271.531-12.592" transform="translate(-1990 -6770)" fill="none" stroke="#4c321f" stroke-width="10"/>
      <path id="Path_47" data-name="Path 47" d="M2384.205,8370.92s34.6,0,65.006,6.982,36.195,17.137,56.634,20.946c47.865,8.922,69.822,7.758,69.822,7.758" transform="translate(-1990 -6770)" fill="none" stroke="#4c321f" stroke-width="10"/>
      <path id="Path_48" data-name="Path 48" d="M2816.872,8397.634s92.955-23.526,175.4-25.938,154.385,16.292,154.385,16.292" transform="translate(-1990 -6770)" fill="none" stroke="#4c321f" stroke-width="10"/>
      <path id="Path_49" data-name="Path 49" d="M3286.839,8346.87H3103.99s-142.748-2.909-248.257,0-77.386,23.274-173.78,11.637-137.317-40.536-211.794-58.186-79.947-13.278-79.947-13.278" transform="translate(-1990 -6770)" fill="none" stroke="#4c321f" stroke-width="10"/>
      <path id="Path_50" data-name="Path 50" d="M3286.839,8323.208s-268.054,2.813-417.142,7.37-98.527,22.5-179.21,10.861-88.442-25.6-143.524-57.41-76.8-69.822-76.8-69.822" transform="translate(-1990 -6770)" fill="none" stroke="#4c321f" stroke-width="10"/>
      <path id="Path_51" data-name="Path 51" d="M2532.223,8221.067a242.793,242.793,0,0,0,60.513,47.446c36.851,20.2,33.553,25.02,86.89,33.359s52.173,5.236,126.456,0,99.885-17.455,170.677-20.946,74.477,10.086,112.491,6.982,67.495-8.728,67.495-19.4-16.874-20.559-67.495-23.274-162.919,12.413-162.919,12.413-104.152,13.965-159.04,10.861-42.087-11.413-60.513-23.274-13.188-24.172-13.188-24.172" transform="translate(-1990 -6770)" fill="none" stroke="#4c321f" stroke-width="10"/>
      <path id="Path_52" data-name="Path 52" d="M2835.442,8214.207s64.676,12.413,150.626,10.086,120.444-16.874,193.175-19.4,97.751,9.31,97.751,9.31" transform="translate(-1990 -6770)" fill="none" stroke="#4c321f" stroke-width="10"/>
      <path id="Path_53" data-name="Path 53" d="M2407.489,8059.047l1.6.747.272.126c18.68,8.677,107.035,49.6,122.857,66.622,17.844,19.2-19.589,15.9-51.2,9.31s-79.908-26.377-79.908-26.377" transform="translate(-1990 -6770)" fill="none" stroke="#4c321f" stroke-width="10"/>
      <path id="Path_54" data-name="Path 54" d="M2409.646,8167.979s95.036,18.573,314.976,12.093,564.785-38.014,564.785-38.014" transform="translate(-1990 -6770)" fill="none" stroke="#4c321f" stroke-width="10"/>
      <path id="Path_55" data-name="Path 55" d="M3269.943,8117.108l-435.157,16.416s-117.922,11.055-197.83,0-157.1-68.659-142.748-83.011,5.237-18.619,78.356-18.619,95.812,18.619,214.122,18.619,150.7-12.219,259.118-18.619,115.013-2.715,174.556-6.982,72.541-3.184,72.541-3.184" transform="translate(-1990 -6770)" fill="none" stroke="#4c321f" stroke-width="10"/>
      <path id="Path_56" data-name="Path 56" d="M3314.086,8038.876s-235.928,32-376.894,42.669-112.1,2.715-186.969,0-72.731-10.861-112.491-10.861-48.488,3.879-46.548,10.861,54.306,17.068,54.306,17.068,61.482,11.249,153.609,9.31,115.982-10.474,214.9-17.068,105.74-4.267,180.762-9.31,119.327-10.861,119.327-10.861" transform="translate(-1990 -6770)" fill="none" stroke="#4c321f" stroke-width="10"/>
      <path id="Path_57" data-name="Path 57" d="M2786.646,7990.012a82.461,82.461,0,0,0-2.13-24.142c-3.136-12.722-10.414-26.745-10.414-26.745" transform="translate(-1990 -6770)" fill="none" stroke="#4c321f" stroke-width="11"/>
      <path id="Path_58" data-name="Path 58" d="M2802.977,7987.172a267.123,267.123,0,0,1,0-45.679c2.189-24.437,8.757-52.069,8.757-52.069" transform="translate(-1990 -6770)" fill="none" stroke="#4c321f" stroke-width="11"/>
      <path id="Path_59" data-name="Path 59" d="M2822.622,7984.332a179.232,179.232,0,0,1-3.313-43.312c1.006-24.733,7.337-55.619,7.337-55.619" transform="translate(-1990 -6770)" fill="none" stroke="#4c321f" stroke-width="11"/>
      <path id="Path_60" data-name="Path 60" d="M2841.083,7984.332s3.787-29.052,11.361-45.442,18.934-20.118,18.934-20.118" transform="translate(-1990 -6770)" fill="none" stroke="#4c321f" stroke-width="11"/>
      <g id="that-logo" transform="translate(34.546 182.621) rotate(-4)">
        <path id="Path_27" data-name="Path 27" d="M564.365,7937.5l-50.182,50.182,50.182,50.183" transform="translate(-12 -6728.498)" fill="none" stroke="#d7d3c3" stroke-width="17"/>
        <path id="Path_28" data-name="Path 28" d="M685.538,8120.992v-18.619H622.271l23.1-55.546-10.816,7.725,34.842-69.529-11.589,5.407,39.4-76.56,38.8,76.56-12.352-5.407,35.278,69.529-11.416-7.725,27.115,55.546H709.493v18.619Z" transform="translate(-41.76 -6770)" fill="#d7d3c3"/>
        <path id="Path_29" data-name="Path 29" d="M514.183,7937.5l50.182,50.182-50.182,50.183" transform="translate(367.609 -6728.498)" fill="none" stroke="#d7d3c3" stroke-width="17"/>
        <path id="Path_30" data-name="Path 30" d="M711.367,8120.992v-18.619h63.266l-23.1-55.546,10.816,7.725-34.842-69.529,11.588,5.407-39.4-76.56-38.8,76.56,12.352-5.407-35.278,69.529,11.416-7.725-27.115,55.546h65.141v18.619Z" transform="translate(79.012 -6770)" fill="#d7d3c3"/>
      </g>
      <text id="Subscribe" transform="translate(569.019 1600.088) rotate(-3)" fill="#d7d3c3" font-size="100" font-family="Stencil"><tspan x="0" y="0">Subscribe</tspan></text>
    </g>
    <g id="right-sign" transform="translate(886.789 1093.972)">
      <g id="post" transform="translate(445.712)">
        <path id="Path_31-2" data-name="Path 31" d="M2761.4,8785.175V7947.933l21.316-18.317,9.646,42.739,9.527-81.408,30.961-8.345v47.014l14.29-38.669h14.29l11.908,16.078-11.908,878.15Z" transform="translate(-2761.402 -7882.603)" fill="url(#linear-gradient)"/>
        <path id="Path_39-2" data-name="Path 39" d="M2800.959,8547.647s-1.879,118.824-34.6,142.464" transform="translate(-2761.357 -7884.446)" fill="none" stroke="#4c321f" stroke-width="6"/>
        <path id="Path_40-2" data-name="Path 40" d="M2814.868,8547.647c-.712-1.471-21.756,196.926-9.231,229.442" transform="translate(-2758.9 -7884.445)" fill="none" stroke="#4c321f" stroke-width="6"/>
        <path id="Path_41-2" data-name="Path 41" d="M2822.994,8547.647s-15.656,196.828,0,232.753" transform="translate(-2751.275 -7884.446)" fill="none" stroke="#4c321f" stroke-width="6"/>
        <path id="Path_42-2" data-name="Path 42" d="M2852.308,8547.647s-7.886,35.584-9.351,73.55c-.947,24.546.84,50.19,9.351,67.506" transform="translate(-2760.671 -7884.446)" fill="none" stroke="#4c321f" stroke-width="6"/>
        <path id="Path_57-2" data-name="Path 57" d="M2786.759,7990.469a83.2,83.2,0,0,0-2.149-24.358c-3.164-12.836-10.507-26.985-10.507-26.985" transform="translate(-2761.288 -7882.095)" fill="none" stroke="#4c321f" stroke-width="11"/>
        <path id="Path_58-2" data-name="Path 58" d="M2802.986,7988.05a269.513,269.513,0,0,1,0-46.089c2.209-24.656,8.836-52.537,8.836-52.537" transform="translate(-2761.037 -7882.542)" fill="none" stroke="#4c321f" stroke-width="11"/>
        <path id="Path_59-2" data-name="Path 59" d="M2822.653,7985.22a180.837,180.837,0,0,1-3.343-43.7c1.015-24.955,7.4-56.119,7.4-56.119" transform="translate(-2760.883 -7882.578)" fill="none" stroke="#4c321f" stroke-width="11"/>
        <path id="Path_60-2" data-name="Path 60" d="M2841.083,7984.92s3.821-29.313,11.463-45.85,19.1-20.3,19.1-20.3" transform="translate(-2760.687 -7882.278)" fill="none" stroke="#4c321f" stroke-width="11"/>
      </g>
      <path id="Path_37-2" data-name="Path 37" d="M2396.52,8413.432s-2.076-13.593,8.3-15.8c21.758-4.625,71.53,0,115.745,0h134.528s267.22,10.641,353.924,15.8c104.508,6.217,136.549,20.352,191.31,20.352,50.264,0,79.78-21.552,92.415-24.167,11.947-2.473,7.311,13.991,7.311,13.991l7.288,19.2-7.288,15.4-34.4,16.281,27.084-3.824,7.311,18.071,7.288,53.723-7.288,15.271s-252.392-25.746-478.275-30.324-425.257,12.008-425.257,12.008l-5.126-17.8Z" transform="translate(-2377.903 -7861.832)" fill="#4c321f"/>
      <path id="Path_35-2" data-name="Path 35" d="M3302.938,8204.724l4.906,44.157-4.906,9.957h-18.317l10.2,12.007,8.122,14.246,4.906,16.851-4.906,9.812-34.6,10.176,26.477,7.436,8.122,14.748,4.906,41.952-4.906,10.964s-209.627,6.106-437.571,0-474.205-24.423-474.205-24.423l-6.957-19.155,6.957-60.015,6.624-8.345h21.869l-28.493-14.246-6.957-16.515,6.957-18.084,6.624-8.289,68.679-5.957-75.3-17.276-6.957-17.322s21.712-24.423,122.964-24.423,289,24.423,289,24.423l303.247,17.322,195.4-13.386Z" transform="translate(-2370.641 -7864.949)" fill="#4c321f"/>
      <path id="Path_34-2" data-name="Path 34" d="M3318.1,7993.833s-66.55,15.772-205.453,0-197.01-6.106-350.16-24.423c-125.582-15.02-233.46-24.973-269.144-24.188-7.534.166-13.593,11.1-13.593,11.1l10.018,37.51,30.732,10.176-106.035,16.485-12.108,49.992,12.108,19.205L2520.5,8105.77l-83.444,10.176-12.108,19.464,12.108,19.205s134.833,9.82,278.824,22.591,146.586,19.283,297.141,28.493c41.183,2.52,89.72,4.223,136.156,0,45.784-4.162,89.549-14.246,89.549-14.246H3318.1l16.282-47.015-16.282-19.205h-16.078l32.36-9.288,4.618-14.409-8.485-54.585-28.493-12.415,28.493-20.352v-11.654Z" transform="translate(-2416.359 -7866.762)" fill="#4c321f"/>
      <path id="Path_33-2" data-name="Path 33" d="M3295.982,8204.724v54.114h-18.317l18.317,26.253v26.662l-34.6,10.176,34.6,22.184v52.916s-209.627,6.106-437.571,0-474.205-24.423-474.205-24.423v-79.17l28.493-8.345-28.493-14.246v-34.6l75.3-14.246-75.3-17.276V8187.4s14.755-24.423,116.007-24.423,289,24.423,289,24.423l303.247,17.322Z" transform="translate(-2357.748 -7875.039)" fill="url(#linear-gradient-6)"/>
      <path id="Path_36-2" data-name="Path 36" d="M2392.271,8413.432s59.4-15.8,124.045-15.8h134.528s267.22,10.641,353.924,15.8c104.508,6.217,136.549,20.352,191.31,20.352,99.929,0,99.725-10.176,99.725-10.176v34.6l-34.4,16.281,34.4,14.247v68.993s-252.392-25.746-478.275-30.324-425.257,12.008-425.257,12.008Z" transform="translate(-2365.708 -7877.976)" fill="url(#linear-gradient-7)"/>
      <path id="Path_32-2" data-name="Path 32" d="M3289.916,8004.043s-76.829,15.773-215.733,0-170.653-16.282-323.8-34.6-272.719-10.176-272.719-10.176v34.6l30.732,10.176-106.035,16.485v69.2l106.035,16.078-83.444,10.176v38.669s134.833,9.82,278.824,22.591,146.586,19.283,297.141,28.493c41.183,2.52,89.72,4.223,136.156,0,45.784-4.162,89.549-14.246,89.549-14.246h79.373l16.282-47.015-32.36-18.316,32.36-10.176-3.867-68.994-28.493-12.415,28.493-20.352Z" transform="translate(-2402.359 -7881.93)" fill="url(#linear-gradient-8)"/>
      <path id="Path_38-2" data-name="Path 38" d="M2763.608,8547.647s-3.131,61.369,15.656,92.523" transform="translate(-2223.642 -7884.446)" fill="none" stroke="#4c321f" stroke-width="6"/>
      <path id="Path_43-2" data-name="Path 43" d="M3294.352,8540.351s-66.649-17.612-150.965-23.483-99.021,5.831-186.3,0-54.4-17.494-162.817-23.326-169.862-7.436-270.839,0-133.072,29.746-133.072,29.746" transform="translate(-2362.328 -7877.159)" fill="none" stroke="#4c321f" stroke-width="10"/>
      <path id="Path_44-2" data-name="Path 44" d="M2389.475,8493.929s50.807-3.874,123.581-10.958,167.513-17.379,167.513-17.379,197.65,15.422,331.9,17.379,134.245-.157,205.086-9.551,70.592-24.283,70.592-24.283" transform="translate(-2362.911 -7877.547)" fill="none" stroke="#4c321f" stroke-width="10"/>
      <path id="Path_45-2" data-name="Path 45" d="M2504.294,8454.744s141.682-21.76,292.757-21.76,311.543,21.76,311.543,21.76l184.734-12.523" transform="translate(-2476.262 -7877.658)" fill="none" stroke="#4c321f" stroke-width="10"/>
      <path id="Path_46-2" data-name="Path 46" d="M2699.641,8412.634s156.946,12.7,300.584,12.7,273.97-12.7,273.97-12.7" transform="translate(-2654.231 -7877.841)" fill="none" stroke="#4c321f" stroke-width="10"/>
      <path id="Path_47-2" data-name="Path 47" d="M2577.388,8370.92s-34.907,0-65.59,7.045-36.52,17.291-57.142,21.135c-48.3,9-70.449,7.827-70.449,7.827" transform="translate(-1639.154 -7878.216)" fill="none" stroke="#4c321f" stroke-width="10"/>
      <path id="Path_48-2" data-name="Path 48" d="M3149.622,8397.869s-93.791-23.738-176.978-26.172-155.772,16.438-155.772,16.438" transform="translate(-2647.941 -7878.211)" fill="none" stroke="#4c321f" stroke-width="10"/>
      <path id="Path_49-2" data-name="Path 49" d="M2390.211,8347.412H2574.7s144.03-2.936,250.487,0,78.082,23.483,175.341,11.741,138.551-40.9,213.7-58.709,80.666-13.4,80.666-13.4" transform="translate(-2362.719 -7878.973)" fill="none" stroke="#4c321f" stroke-width="10"/>
      <path id="Path_50-2" data-name="Path 50" d="M2470.158,8324.188s270.462,2.838,420.89,7.437,99.412,22.7,180.821,10.959,89.236-25.832,144.813-57.926,77.495-70.45,77.495-70.45" transform="translate(-2442.667 -7879.624)" fill="none" stroke="#4c321f" stroke-width="10"/>
      <path id="Path_51-2" data-name="Path 51" d="M3162.354,8221.067a244.975,244.975,0,0,1-61.056,47.873c-37.182,20.383-33.855,25.244-87.67,33.659s-52.642,5.283-127.592,0-100.782-17.612-172.21-21.135-75.146,10.177-113.5,7.045-68.1-8.806-68.1-19.569,17.025-20.743,68.1-23.483,164.382,12.524,164.382,12.524,105.087,14.09,160.469,10.959,42.466-11.516,61.056-23.483,13.307-24.39,13.307-24.39" transform="translate(-2373.468 -7879.562)" fill="none" stroke="#4c321f" stroke-width="10"/>
      <path id="Path_52-2" data-name="Path 52" d="M3280.96,8214.294s-65.256,12.524-151.979,10.177-121.526-17.025-194.91-19.569-98.629,9.393-98.629,9.393" transform="translate(-2798.016 -7879.711)" fill="none" stroke="#4c321f" stroke-width="10"/>
      <path id="Path_53-2" data-name="Path 53" d="M2531.627,8059.047l-1.62.753-.275.127c-18.848,8.755-108,50.042-123.96,67.22-18,19.374,19.765,16.047,51.663,9.394s80.625-26.614,80.625-26.614" transform="translate(-1616.885 -7881.018)" fill="none" stroke="#4c321f" stroke-width="10"/>
      <path id="Path_54-2" data-name="Path 54" d="M3297.31,8168.211s-95.89,18.74-317.806,12.2-569.858-38.355-569.858-38.355" transform="translate(-2384.745 -7880.272)" fill="none" stroke="#4c321f" stroke-width="10"/>
      <path id="Path_55-2" data-name="Path 55" d="M2515.639,8117.966l439.066,16.564s118.981,11.154,199.607,0,158.511-69.276,144.03-83.757-5.284-18.787-79.06-18.787-96.672,18.787-216.045,18.787-152.053-12.329-261.446-18.787-116.046-2.74-176.124-7.045-73.192-3.213-73.192-3.213" transform="translate(-2471.1 -7881.354)" fill="none" stroke="#4c321f" stroke-width="10"/>
      <path id="Path_56-2" data-name="Path 56" d="M2590.932,8038.876s238.048,32.29,380.28,43.052,113.111,2.74,188.648,0,73.385-10.959,113.5-10.959,48.923,3.914,46.967,10.959-54.794,17.221-54.794,17.221-62.035,11.35-154.989,9.393-117.024-10.568-216.828-17.221-106.689-4.3-182.386-9.393-120.4-10.959-120.4-10.959" transform="translate(-2590.932 -7881.199)" fill="none" stroke="#4c321f" stroke-width="10"/>
      <g id="that-logo-2" data-name="that-logo" transform="translate(-146.706 -1018.231) rotate(3)">
        <path id="Path_27-2" data-name="Path 27" d="M564.365,7937.5l-50.182,50.182,50.182,50.183" transform="translate(-12 -6728.498)" fill="none" stroke="#4c321f" stroke-width="17"/>
        <path id="Path_28-2" data-name="Path 28" d="M685.538,8120.992v-18.619H622.271l23.1-55.546-10.816,7.725,34.842-69.529-11.589,5.407,39.4-76.56,38.8,76.56-12.352-5.407,35.278,69.529-11.416-7.725,27.115,55.546H709.493v18.619Z" transform="translate(-41.76 -6770)" fill="#4c321f" stroke="#d7d3c3" stroke-width="3"/>
        <path id="Path_29-2" data-name="Path 29" d="M514.183,7937.5l50.182,50.182-50.182,50.183" transform="translate(367.609 -6728.498)" fill="none" stroke="#4c321f" stroke-width="17"/>
        <path id="Path_30-2" data-name="Path 30" d="M711.367,8120.992v-18.619h63.266l-23.1-55.546,10.816,7.725-34.842-69.529,11.588,5.407-39.4-76.56-38.8,76.56,12.352-5.407-35.278,69.529,11.416-7.725-27.115,55.546h65.141v18.619Z" transform="translate(79.012 -6770)" fill="#4c321f" stroke="#d7d3c3" stroke-width="3"/>
      </g>
      <text id="No-Subscribe" transform="translate(143.932 452.69) rotate(3)" fill="#4c321f" stroke="#d7d3c3" stroke-width="2" font-size="100" font-family="Stencil"><tspan x="0" y="0">No-Subscribe</tspan></text>
    </g>
  </g>
</svg>
